<svg id="Layer_1" data-name="Layer 1" xmlns="http://www.w3.org/2000/svg" viewBox="0 0 195.4 246.88"><defs><style>.cls-1{fill:none;stroke:#0F85FA;stroke-miterlimit:10;stroke-width:20;}</style></defs><path class="cls-1" d="M45.39,168.39,26.73,137l-.49-.81c-.94-1.64-1.84-3.31-2.67-5a83.69,83.69,0,0,1-8.6-37C15,47.5,53.16,9.64,100.24,9.64s85.29,37.86,85.29,84.54a83.57,83.57,0,0,1-11.28,42l-.35.61L146.64,185.6"/><line class="cls-1" x1="58.83" y1="191.47" x2="45.39" y2="168.39"/><path class="cls-1" d="M138.81,197.7a325.27,325.27,0,0,0,20.7-35.06"/><path class="cls-1" d="M99.4,242.44c15.41-13.05,26.16-25.25,39.41-44.74"/><path class="cls-1" d="M104.68,242.44c-15.48-12.09-30-27.22-46.38-51.87"/><circle class="cls-1" cx="100.09" cy="83.71" r="24.34"/></svg>