<svg id="Layer_1" data-name="Layer 1" xmlns="http://www.w3.org/2000/svg" viewBox="0 0 700.6 457.53"><defs><style>.cls-1{fill:none;stroke:#FFFFFF;stroke-miterlimit:10;stroke-width:35px;}</style></defs><path class="cls-1" d="M201,143.35l-76.76,65.79a2.17,2.17,0,0,0,1.4,3.82l33.31.15"/><path class="cls-1" d="M508.06,143.35l76.77,65.79a2.17,2.17,0,0,1-1.41,3.82l-33.31.15"/><path class="cls-1" d="M510.06,145.09,363.36,18.39a12.27,12.27,0,0,0-16,0L200.55,143.77"/><line class="cls-1" x1="514.31" y1="372.97" x2="514.31" y2="292.95"/><line class="cls-1" x1="229.44" y1="119.09" x2="202.05" y2="142.54"/><path class="cls-1" d="M299.69,331.53,281,300.19l-.49-.81c-.94-1.64-1.84-3.31-2.67-5a83.55,83.55,0,0,1-8.6-37.05c0-46.69,38.19-84.54,85.27-84.54s85.29,37.85,85.29,84.54a83.47,83.47,0,0,1-11.29,42.05l-.35.61-27.25,48.75"/><line class="cls-1" x1="313.13" y1="354.62" x2="299.69" y2="331.53"/><path class="cls-1" d="M393.11,360.85a326.24,326.24,0,0,0,20.7-35.06"/><path class="cls-1" d="M196.05,370.91c1.89,19,3.59,31.36,10.32,42,16.29,25.67,53.78,28.41,62.3,29,43,3.14,88.82-28.68,124.44-81.06"/><path class="cls-1" d="M514.31,370.91c-1.89,19-3.59,31.36-10.32,42-18.42,29-55.48,29-62.29,29-5.82.06-23.11-.36-51.47-15.72-18.07-9.78-49.74-30.56-77.63-72.47"/><circle class="cls-1" cx="354.39" cy="246.86" r="24.34"/><path class="cls-1" d="M137.53,213.11h48.59a9.88,9.88,0,0,1,10.13,9.95V372.82"/><path class="cls-1" d="M573,213.1H524.43a9.87,9.87,0,0,0-10.12,10V372.81"/></svg>